<svg xmlns="http://www.w3.org/2000/svg" viewBox="0 0 512 512">
  <defs>
    <linearGradient id="sky" x1="0" y1="0" x2="1" y2="1">
      <stop offset="0" stop-color="#211733"/>
      <stop offset=".48" stop-color="#843c68"/>
      <stop offset="1" stop-color="#ff9a5e"/>
    </linearGradient>
    <radialGradient id="sun">
      <stop offset="0" stop-color="#fff5bf"/>
      <stop offset="1" stop-color="#ffc06f"/>
    </radialGradient>
  </defs>
  <rect width="512" height="512" fill="url(#sky)"/>
  <circle cx="350" cy="224" r="76" fill="url(#sun)"/>
  <path d="M0 332c84-30 148-24 220 5 86 35 171 32 292-23v198H0z" fill="#261b39"/>
  <path d="M0 367c105-22 174-11 246 18 74 30 164 24 266-19v146H0z" fill="#151224" opacity=".85"/>
  <path d="M105 186c45-31 90-29 132 5 28-20 62-20 96 7-40-9-73-2-99 20-39-30-82-34-129-12z" fill="#fff" opacity=".18"/>
</svg>
